<svg xmlns="http://www.w3.org/2000/svg" viewBox="0 0 24 24" fill="currentColor">
    <path d="M17.6 9.48l1.43-2.48c.1-.18.04-.41-.14-.51-.18-.1-.41-.04-.51.14l-1.46 2.53A8.02 8.02 0 0012 8c-1.78 0-3.42.58-4.76 1.55L5.78 7.02c-.1-.18-.33-.24-.51-.14-.18.1-.24.33-.14.51l1.43 2.48A7.97 7.97 0 004 14v5c0 .55.45 1 1 1h1v3h2v-3h8v3h2v-3h1c.55 0 1-.45 1-1v-5c0-1.74-.56-3.35-1.4-4.52zM9 14.5c-.83 0-1.5-.67-1.5-1.5S8.17 11.5 9 11.5s1.5.67 1.5 1.5S9.83 14.5 9 14.5zm6 0c-.83 0-1.5-.67-1.5-1.5s.67-1.5 1.5-1.5 1.5.67 1.5 1.5-.67 1.5-1.5 1.5z"/>
</svg>