<svg xmlns="http://www.w3.org/2000/svg" viewBox="0 0 24 24" fill="currentColor">
    <path d="M16.365 1.43c0 1.14-.465 2.18-1.22 2.94-.78.79-2.06 1.4-3.13 1.32-.14-1.11.45-2.23 1.2-3 .75-.76 2.06-1.32 3.15-1.26zM20.5 17.58c-.5 1.12-.74 1.62-1.38 2.59-.9 1.36-2.17 3.05-3.74 3.06-1.39.01-1.75-.9-3.64-.89-1.89.01-2.29.91-3.68.89-1.57-.01-2.78-1.54-3.68-2.9-2.52-3.77-2.78-8.2-1.23-10.58 1.1-1.7 2.84-2.7 4.48-2.7 1.66 0 2.7.91 4.07.91 1.33 0 2.15-.91 4.06-.91 1.43 0 2.94.78 4.04 2.14-3.57 1.96-2.99 7.08.7 8.39z"/>
</svg>